<svg width="32" height="32" viewBox="0 0 32 32" fill="none" xmlns="http://www.w3.org/2000/svg">
<path d="M0 16C0 24.8366 7.16344 32 16 32C24.8366 32 32 24.8366 32 16C32 7.16344 24.8366 0 16 0C7.16344 0 0 7.16344 0 16Z" fill="#1A9DD9"/>
<path d="M24.3165 7.26597L6.02487 14.394C5.4324 14.6249 5.46829 15.4751 6.07817 15.6552L10.7263 17.0277L12.4609 22.532C12.6421 23.107 13.3707 23.2813 13.7925 22.8506L16.1957 20.3969L20.9109 23.858C21.488 24.2815 22.3098 23.9668 22.4563 23.2662L25.5793 8.33537C25.7322 7.60401 25.0127 6.99468 24.3165 7.26597ZM22.0232 10.5795L13.5268 18.0928C13.4422 18.1677 13.3883 18.2714 13.3757 18.3837L13.0485 21.2916C13.0379 21.3865 12.9051 21.399 12.8768 21.3079L11.531 16.9712C11.4693 16.7727 11.5497 16.5575 11.7263 16.448L21.7596 10.2253C21.9904 10.082 22.2266 10.3997 22.0232 10.5795Z" fill="white"/>
</svg>
