<svg width="32" height="32" viewBox="0 0 32 32" fill="none" xmlns="http://www.w3.org/2000/svg">
<g clip-path="url(#clip0_344_1063)">
<path d="M0 16C0 24.8366 7.16344 32 16 32C24.8366 32 32 24.8366 32 16C32 7.16344 24.8366 0 16 0C7.16344 0 0 7.16344 0 16Z" fill="#7D3DAF"/>
<path d="M25.9526 10.5699L25.9467 10.5461C25.4642 8.59552 23.2889 6.50247 21.2913 6.06702L21.2688 6.06239C18.0377 5.446 14.7616 5.446 11.5312 6.06239L11.508 6.06702C9.51108 6.50247 7.33584 8.59552 6.85268 10.5461L6.84738 10.5699C6.25088 13.294 6.25088 16.0564 6.84738 18.7804L6.85268 18.8043C7.31523 20.6716 9.32849 22.6685 11.2515 23.2177V25.395C11.2515 26.1831 12.2119 26.5701 12.758 26.0015L14.9641 23.7083C15.4426 23.7351 15.9213 23.75 16.4 23.75C18.0265 23.75 19.6536 23.5963 21.2688 23.2881L21.2913 23.2834C23.2889 22.848 25.4642 20.7549 25.9467 18.8044L25.9526 18.7805C26.5491 16.0564 26.5491 13.294 25.9526 10.5699ZM24.2069 18.3854C23.8848 19.658 22.2331 21.24 20.9208 21.5323C19.2028 21.859 17.4712 21.9986 15.7414 21.9507C15.707 21.9498 15.6739 21.9631 15.6499 21.9878C15.4044 22.2397 14.0392 23.6413 14.0392 23.6413L12.3259 25.3996C12.2006 25.5302 11.9806 25.4414 11.9806 25.2611V21.6541C11.9806 21.5945 11.938 21.5439 11.8795 21.5324C11.8792 21.5324 11.8789 21.5323 11.8785 21.5322C10.5662 21.2399 8.91525 19.6579 8.59247 18.3854C8.05562 15.9231 8.05562 13.4271 8.59247 10.9649C8.91525 9.69236 10.5662 8.1103 11.8785 7.81802C14.8789 7.24737 17.9211 7.24737 20.9208 7.81802C22.2338 8.1103 23.8848 9.69236 24.2069 10.9649C24.7443 13.4272 24.7443 15.9232 24.2069 18.3854Z" fill="white"/>
<path d="M19.2547 20.0503C19.0529 19.989 18.8607 19.9479 18.6821 19.8738C16.8319 19.1061 15.1291 18.1158 13.7803 16.5977C13.0132 15.7344 12.4129 14.7598 11.9054 13.7284C11.6647 13.2393 11.4619 12.731 11.2552 12.226C11.0667 11.7655 11.3443 11.2898 11.6367 10.9428C11.911 10.6172 12.264 10.368 12.6463 10.1843C12.9447 10.041 13.239 10.1236 13.457 10.3766C13.9281 10.9233 14.3608 11.4981 14.7112 12.1319C14.9267 12.5218 14.8676 12.9983 14.477 13.2636C14.3821 13.3281 14.2956 13.4038 14.2072 13.4766C14.1297 13.5405 14.0567 13.6049 14.0036 13.6914C13.9064 13.8495 13.9017 14.036 13.9643 14.2079C14.4459 15.5314 15.2576 16.5605 16.5896 17.1147C16.8028 17.2034 17.0169 17.3067 17.2624 17.2781C17.6737 17.23 17.8068 16.7789 18.095 16.5432C18.3767 16.3129 18.7367 16.3099 19.0401 16.5019C19.3436 16.694 19.6378 16.9001 19.9302 17.1085C20.2172 17.3131 20.503 17.5131 20.7678 17.7463C21.0224 17.9705 21.1101 18.2647 20.9667 18.569C20.7042 19.1262 20.3224 19.5898 19.7715 19.8858C19.6159 19.9692 19.4301 19.9962 19.2547 20.0503C19.0529 19.9889 19.4301 19.9962 19.2547 20.0503Z" fill="white"/>
<path d="M16.4051 9.54739C18.8252 9.6152 20.8129 11.2213 21.2389 13.6139C21.3115 14.0216 21.3373 14.4384 21.3696 14.8522C21.3832 15.0263 21.2846 15.1916 21.0968 15.1939C20.9028 15.1962 20.8155 15.0339 20.8029 14.8599C20.778 14.5155 20.7607 14.1696 20.7133 13.8281C20.4627 12.0253 19.0252 10.5337 17.2307 10.2137C16.9607 10.1655 16.6843 10.1528 16.4108 10.1241C16.2378 10.106 16.0114 10.0955 15.9731 9.88057C15.9409 9.70036 16.093 9.55687 16.2646 9.54766C16.3113 9.54507 16.3582 9.54719 16.4051 9.54739C18.8252 9.6152 16.3582 9.54719 16.4051 9.54739Z" fill="white"/>
<path d="M20.0829 14.3152C20.0789 14.3454 20.0768 14.4164 20.0591 14.4834C19.9949 14.7264 19.6265 14.7568 19.5417 14.5115C19.5166 14.4388 19.5128 14.356 19.5127 14.2777C19.5118 13.7651 19.4004 13.253 19.1419 12.807C18.8762 12.3486 18.4703 11.9633 17.9941 11.7301C17.7062 11.5892 17.3948 11.5015 17.0793 11.4493C16.9414 11.4265 16.802 11.4127 16.6634 11.3934C16.4955 11.37 16.4058 11.263 16.4137 11.0975C16.4212 10.9424 16.5345 10.8309 16.7035 10.8404C17.2589 10.872 17.7954 10.992 18.2891 11.2535C19.2932 11.7852 19.8668 12.6245 20.0342 13.7453C20.0418 13.7961 20.054 13.8464 20.0578 13.8974C20.0673 14.0232 20.0732 14.1492 20.0829 14.3152C20.0789 14.3454 20.0732 14.1492 20.0829 14.3152Z" fill="white"/>
<path d="M18.5776 14.2564C18.3751 14.2601 18.2668 14.148 18.2459 13.9623C18.2314 13.8329 18.2199 13.7017 18.189 13.5758C18.1282 13.3278 17.9964 13.098 17.7877 12.946C17.6892 12.8742 17.5776 12.8219 17.4607 12.7882C17.3122 12.7453 17.158 12.7571 17.0098 12.7208C16.8488 12.6813 16.7598 12.551 16.7851 12.4C16.8081 12.2627 16.9418 12.1554 17.0919 12.1663C18.0302 12.234 18.7008 12.7191 18.7965 13.8237C18.8033 13.9016 18.8112 13.984 18.7939 14.0586C18.7643 14.1862 18.6698 14.2502 18.5776 14.2564C18.3751 14.2601 18.6698 14.2502 18.5776 14.2564Z" fill="white"/>
</g>
<defs>
<clipPath id="clip0_344_1063">
<rect width="32" height="32" fill="white"/>
</clipPath>
</defs>
</svg>
