<svg width="32" height="32" viewBox="0 0 32 32" fill="none" xmlns="http://www.w3.org/2000/svg">
<g clip-path="url(#clip0_128_234)">
<path d="M0 16C0 24.8366 7.16344 32 16 32C24.8366 32 32 24.8366 32 16C32 7.16344 24.8366 0 16 0C7.16344 0 0 7.16344 0 16Z" fill="#44678D"/>
<path d="M10.7865 11.5859C11.3449 12.9648 12.0525 14.2648 12.9845 15.4318C13.1081 15.5871 13.2639 15.7252 13.4281 15.8376C13.6678 16.0023 13.894 15.9444 13.9915 15.6702C14.0946 15.3823 14.1893 14.799 14.1949 14.4968C14.2103 13.7071 14.1926 13.1895 14.1502 12.4008C14.1226 11.8956 13.9431 11.452 13.2 11.3181C12.9705 11.2766 12.9492 11.0877 13.0966 10.8993C13.4035 10.507 13.8311 10.4445 14.2948 10.4197C15.0463 10.3791 15.8005 10.4123 16.5529 10.4197C16.8594 10.4225 17.1677 10.4472 17.4695 10.513C17.8632 10.5988 18.074 10.875 18.1389 11.2593C18.1725 11.4576 18.1898 11.6614 18.1851 11.862C18.1655 12.724 18.124 13.5856 18.1142 14.4471C18.11 14.7853 18.1347 15.1319 18.207 15.4612C18.3082 15.9202 18.6207 16.0354 18.9403 15.7038C19.3461 15.2826 19.7039 14.8087 20.0397 14.3273C20.6498 13.4517 21.1055 12.4909 21.4978 11.5001C21.7007 10.9889 21.8561 10.8779 22.406 10.8765C23.4397 10.8741 24.4734 10.8732 25.507 10.8765C25.6904 10.8774 25.8821 10.8947 26.0551 10.9497C26.3359 11.0393 26.4474 11.2683 26.3816 11.559C26.2282 12.24 25.8601 12.8189 25.466 13.3754C24.8335 14.2681 24.1706 15.1395 23.5232 16.022C23.4407 16.1344 23.3679 16.2543 23.3002 16.376C23.0581 16.8136 23.0749 17.0589 23.428 17.4232C23.9901 18.003 24.5919 18.5455 25.1362 19.1411C25.5318 19.5745 25.8979 20.0447 26.2114 20.5396C26.6079 21.1656 26.363 21.7551 25.6223 21.8601C25.1563 21.9259 22.8801 21.8606 22.7624 21.8601C22.1505 21.8573 21.614 21.6451 21.1821 21.2295C20.7016 20.7668 20.265 20.2592 19.8037 19.7764C19.6647 19.6309 19.5163 19.4914 19.3564 19.3697C18.979 19.0818 18.6086 19.1457 18.4323 19.5889C18.2816 19.9696 18.1515 20.9691 18.1454 21.0545C18.1137 21.5009 17.8296 21.7855 17.3296 21.813C15.8859 21.8913 14.4869 21.7304 13.1837 21.0321C12.0791 20.4407 11.1971 19.6043 10.433 18.629C9.21928 17.0798 8.2606 15.3769 7.38535 13.624C7.34062 13.5343 6.45412 11.648 6.4303 11.5589C6.35111 11.2605 6.42498 10.9755 6.67706 10.8774C6.83421 10.8163 9.75703 10.8772 9.80565 10.8798C10.272 10.9051 10.5901 11.1018 10.7865 11.5859Z" fill="white"/>
</g>
<defs>
<clipPath id="clip0_128_234">
<rect width="32" height="32" fill="white"/>
</clipPath>
</defs>
</svg>
