<svg width="32" height="32" viewBox="0 0 32 32" fill="none" xmlns="http://www.w3.org/2000/svg">
<g clip-path="url(#clip0_344_1062)">
<path d="M0 16C0 24.8366 7.16344 32 16 32C24.8366 32 32 24.8366 32 16C32 7.16344 24.8366 0 16 0C7.16344 0 0 7.16344 0 16Z" fill="#1BD741"/>
<path d="M6.39999 25.6218L7.80068 20.647C6.89996 19.1168 6.42572 17.3758 6.42572 15.5873C6.42572 10.0803 10.9059 5.6001 16.4129 5.6001C21.9198 5.6001 26.4 10.0803 26.4 15.5873C26.4 21.0942 21.9198 25.5744 16.4129 25.5744C14.697 25.5744 13.0167 25.1352 11.5303 24.3012L6.39999 25.6218ZM11.7926 22.4842L12.0983 22.6709C13.3943 23.4621 14.8863 23.8803 16.4129 23.8803C20.9857 23.8803 24.7058 20.16 24.7058 15.5873C24.7058 11.0145 20.9857 7.29425 16.4129 7.29425C11.8401 7.29425 8.11987 11.0145 8.11987 15.5873C8.11987 17.1806 8.57272 18.7279 9.42933 20.0618L9.6352 20.3823L8.8286 23.2472L11.7926 22.4842Z" fill="white"/>
<path d="M13.6074 10.9388L12.9593 10.9035C12.7558 10.8924 12.5561 10.9604 12.4022 11.0941C12.0881 11.3669 11.5857 11.8943 11.4314 12.5817C11.2013 13.6065 11.5569 14.8614 12.4772 16.1164C13.3975 17.3713 15.1126 19.3792 18.1453 20.2367C19.1226 20.5131 19.8914 20.3268 20.4845 19.9474C20.9543 19.6469 21.2781 19.1645 21.3948 18.6193L21.4983 18.136C21.5312 17.9824 21.4532 17.8265 21.3105 17.7608L19.1203 16.7512C18.9781 16.6857 18.8095 16.7271 18.7139 16.8511L17.8541 17.9657C17.7892 18.0499 17.678 18.0833 17.5776 18.048C16.9888 17.8411 15.0164 17.015 13.9341 14.9303C13.8872 14.8399 13.8989 14.7302 13.9655 14.6531L14.7872 13.7025C14.8711 13.6054 14.8923 13.4689 14.8419 13.3509L13.8978 11.1422C13.8476 11.0246 13.7349 10.9458 13.6074 10.9388Z" fill="white"/>
</g>
<defs>
<clipPath id="clip0_344_1062">
<rect width="32" height="32" fill="white"/>
</clipPath>
</defs>
</svg>
